<?xml version="1.0" encoding="UTF-8"?>
<svg xmlns="http://www.w3.org/2000/svg" xmlns:xlink="http://www.w3.org/1999/xlink" width="318" height="190.5" viewBox="0 0 318 190.5">
<path fill-rule="nonzero" fill="rgb(100%, 100%, 100%)" fill-opacity="1" d="M 0 0 L 318 0 L 318 190.5 L 0 190.5 Z M 0 0 "/>
<path fill-rule="evenodd" fill="rgb(74.116516%, 12.548828%, 14.901733%)" fill-opacity="1" stroke-width="2.709" stroke-linecap="butt" stroke-linejoin="round" stroke="rgb(0%, 0%, 0%)" stroke-opacity="1" stroke-miterlimit="4" d="M 96.152344 20.625 L 79.160156 75.820312 L 81.933594 110.230469 L 126.15625 110.230469 L 173.832031 75.246094 Z M 96.152344 20.625 "/>
<path fill-rule="evenodd" fill="rgb(100%, 100%, 100%)" fill-opacity="1" stroke-width="2.709" stroke-linecap="butt" stroke-linejoin="round" stroke="rgb(0%, 0%, 0%)" stroke-opacity="1" stroke-miterlimit="4" d="M 79.167969 75.898438 L 81.9375 110.230469 L 126.058594 110.230469 L 114.265625 75.898438 Z M 79.167969 75.898438 "/>
<path fill-rule="evenodd" fill="rgb(96.469116%, 70.587158%, 9.803772%)" fill-opacity="1" stroke-width="2.709" stroke-linecap="butt" stroke-linejoin="round" stroke="rgb(0%, 0%, 0%)" stroke-opacity="1" stroke-miterlimit="4" d="M 20.636719 75.820312 L 50.722656 166.023438 L 97.484375 131.429688 Z M 20.636719 75.820312 "/>
<path fill="none" stroke-width="2.709" stroke-linecap="butt" stroke-linejoin="miter" stroke="rgb(0%, 0%, 0%)" stroke-opacity="1" stroke-miterlimit="4" d="M 50.863281 165.527344 L 77.925781 80.496094 "/>
<path fill-rule="evenodd" fill="rgb(98.822021%, 92.939758%, 15.293884%)" fill-opacity="1" stroke-width="2.709" stroke-linecap="butt" stroke-linejoin="round" stroke="rgb(0%, 0%, 0%)" stroke-opacity="1" stroke-miterlimit="4" d="M 20.636719 75.820312 L 114.34375 75.820312 L 97.480469 131.429688 Z M 20.636719 75.820312 "/>
<path fill-rule="nonzero" fill="rgb(0%, 0%, 0%)" fill-opacity="1" d="M 276.703125 154.203125 C 272.40625 154.203125 269.285156 157.660156 269.285156 161.734375 C 269.285156 165.8125 272.40625 169.269531 276.703125 169.269531 C 278.882812 169.269531 280.804688 168.097656 282.003906 166.695312 L 282.003906 168.800781 L 284.121094 168.800781 L 284.121094 154.570312 L 282.003906 154.570312 L 282.003906 156.761719 C 280.839844 155.265625 278.980469 154.203125 276.703125 154.203125 Z M 276.703125 156.316406 C 279.777344 156.316406 282.113281 158.769531 282.113281 161.734375 C 282.113281 164.703125 279.949219 167.25 276.800781 167.25 C 273.648438 167.25 271.46875 164.570312 271.46875 161.734375 C 271.46875 158.902344 273.628906 156.316406 276.703125 156.316406 Z M 225.726562 154.203125 C 221.429688 154.203125 218.308594 157.660156 218.308594 161.734375 C 218.308594 165.8125 221.429688 169.269531 225.726562 169.269531 C 227.902344 169.269531 229.824219 168.097656 231.027344 166.695312 L 231.027344 168.800781 L 233.144531 168.800781 L 233.144531 154.570312 L 231.027344 154.570312 L 231.027344 156.761719 C 229.863281 155.265625 228 154.203125 225.726562 154.203125 Z M 225.726562 156.316406 C 228.800781 156.316406 231.132812 158.769531 231.132812 161.734375 C 231.132812 164.703125 228.972656 167.25 225.820312 167.25 C 222.667969 167.25 220.492188 164.570312 220.492188 161.734375 C 220.492188 158.902344 222.648438 156.316406 225.726562 156.316406 Z M 174.96875 161.75 C 174.96875 166.121094 178.363281 169.269531 182.371094 169.269531 C 186.054688 169.269531 187.921875 167.296875 189.277344 164.832031 L 187.449219 163.890625 C 186.246094 166.136719 184.554688 167.257812 182.214844 167.257812 C 179.199219 167.257812 177.164062 164.652344 177.164062 162.0625 L 189.671875 162.0625 C 189.671875 157.582031 186.664062 154.203125 182.292969 154.203125 C 177.925781 154.203125 174.96875 157.609375 174.96875 161.75 Z M 182.292969 156.292969 C 184.875 156.292969 186.761719 157.941406 187.265625 160.15625 L 177.425781 160.15625 C 178.230469 157.582031 179.710938 156.292969 182.292969 156.292969 Z M 288.085938 158.351562 C 288.085938 161.222656 289.996094 162.09375 292.472656 162.828125 C 293.863281 163.242188 294.898438 163.6875 294.898438 164.972656 C 294.898438 166.410156 293.886719 167.25 292.394531 167.25 C 290.449219 167.25 289.769531 165.761719 289.59375 164.253906 L 287.777344 164.632812 C 288.191406 167.722656 289.699219 169.269531 292.296875 169.269531 C 295.28125 169.269531 296.773438 167.21875 296.78125 164.660156 C 296.785156 161.785156 295.175781 161.140625 292.410156 160.199219 C 291.039062 159.734375 289.855469 159.335938 289.855469 158.070312 C 289.855469 156.636719 291.101562 156.214844 292.222656 156.210938 C 293.625 156.207031 294.410156 156.996094 294.574219 158.570312 L 296.367188 158.246094 C 296.101562 155.757812 294.835938 154.203125 292.171875 154.203125 C 289.425781 154.203125 288.085938 156.101562 288.085938 158.351562 Z M 215.402344 124.503906 C 211.105469 124.503906 207.984375 127.960938 207.984375 132.035156 C 207.984375 136.113281 211.105469 139.570312 215.402344 139.570312 C 219.699219 139.570312 222.816406 136.113281 222.816406 132.035156 C 222.816406 127.960938 219.699219 124.503906 215.402344 124.503906 Z M 215.402344 126.617188 C 218.265625 126.617188 220.617188 129.203125 220.617188 132.035156 C 220.617188 134.871094 218.550781 137.511719 215.402344 137.511719 C 212.25 137.511719 210.183594 134.871094 210.183594 132.035156 C 210.183594 129.203125 212.539062 126.617188 215.402344 126.617188 Z M 160.808594 119.515625 L 160.808594 124.867188 L 158.351562 124.867188 L 158.351562 126.75 L 160.808594 126.75 L 160.808594 139.570312 L 162.984375 139.570312 L 162.984375 126.75 L 165.808594 126.75 L 165.808594 124.867188 L 162.984375 124.867188 L 162.984375 119.515625 Z M 175.777344 119.515625 L 175.777344 124.867188 L 173.316406 124.867188 L 173.316406 126.75 L 175.777344 126.75 L 175.777344 139.570312 L 177.949219 139.570312 L 177.949219 126.75 L 180.777344 126.75 L 180.777344 124.867188 L 177.949219 124.867188 L 177.949219 119.515625 Z M 200.679688 119.515625 L 200.679688 124.867188 L 198.21875 124.867188 L 198.21875 126.75 L 200.679688 126.75 L 200.679688 139.570312 L 202.851562 139.570312 L 202.851562 126.75 L 205.675781 126.75 L 205.675781 124.867188 L 202.851562 124.867188 L 202.851562 119.515625 Z M 246.601562 119.515625 L 246.601562 127.03125 C 245.386719 125.492188 243.597656 124.503906 241.304688 124.503906 C 237.007812 124.503906 233.886719 127.960938 233.886719 132.035156 C 233.886719 136.113281 237.007812 139.570312 241.304688 139.570312 C 243.570312 139.570312 245.382812 138.460938 246.601562 136.96875 L 246.601562 139.097656 L 248.722656 139.097656 L 248.722656 119.515625 Z M 241.304688 126.617188 C 244.417969 126.617188 246.710938 128.992188 246.710938 132.035156 C 246.710938 135.082031 244.359375 137.550781 241.304688 137.550781 C 238.246094 137.550781 236.085938 134.871094 236.085938 132.035156 C 236.085938 129.203125 238.191406 126.617188 241.304688 126.617188 Z M 125.070312 119.988281 L 125.070312 139.097656 L 127.320312 139.097656 L 127.320312 119.988281 Z M 168.347656 120.011719 L 168.347656 123.199219 L 170.519531 123.199219 L 170.519531 120.011719 Z M 133.75 127.007812 L 133.75 124.867188 L 131.578125 124.867188 L 131.578125 139.097656 L 133.75 139.097656 L 133.75 133.824219 C 133.75 131.945312 133.792969 130.679688 133.984375 130.0625 C 134.648438 127.945312 136.386719 126.515625 138.328125 126.515625 C 140.503906 126.515625 141.195312 127.550781 141.703125 129.125 C 141.878906 129.675781 141.9375 130.746094 141.9375 132.308594 L 141.9375 139.097656 L 144.085938 139.097656 L 144.085938 131.789062 C 144.085938 129.855469 143.902344 128.414062 143.457031 127.507812 C 142.421875 125.414062 140.703125 124.511719 138.773438 124.503906 C 136.835938 124.492188 135.160156 125.339844 133.75 127.007812 Z M 147.132812 128.652344 C 147.132812 131.519531 149.039062 132.394531 151.515625 133.128906 C 152.90625 133.539062 153.945312 133.988281 153.945312 135.269531 C 153.945312 136.710938 152.929688 137.546875 151.4375 137.546875 C 149.496094 137.546875 148.8125 136.0625 148.636719 134.550781 L 146.820312 134.929688 C 147.234375 138.023438 148.742188 139.570312 151.339844 139.570312 C 154.324219 139.570312 155.816406 137.519531 155.824219 134.957031 C 155.832031 132.085938 154.21875 131.4375 151.453125 130.496094 C 150.085938 130.03125 148.898438 129.636719 148.898438 128.371094 C 148.898438 126.933594 150.144531 126.515625 151.265625 126.511719 C 152.667969 126.503906 153.453125 127.296875 153.621094 128.871094 L 155.414062 128.542969 C 155.144531 126.058594 153.878906 124.503906 151.214844 124.503906 C 148.46875 124.503906 147.132812 126.402344 147.132812 128.652344 Z M 252.183594 132.050781 C 252.183594 136.421875 255.578125 139.570312 259.585938 139.570312 C 263.273438 139.570312 265.136719 137.597656 266.496094 135.128906 L 264.664062 134.191406 C 263.460938 136.433594 261.773438 137.558594 259.429688 137.558594 C 256.417969 137.558594 254.382812 134.953125 254.382812 132.363281 L 266.890625 132.363281 C 266.890625 127.878906 263.878906 124.503906 259.511719 124.503906 C 255.140625 124.503906 252.183594 127.90625 252.183594 132.050781 Z M 259.511719 126.589844 C 262.09375 126.589844 263.976562 128.238281 264.480469 130.457031 L 254.644531 130.457031 C 255.445312 127.878906 256.925781 126.589844 259.511719 126.589844 Z M 168.347656 124.867188 L 168.347656 139.097656 L 170.519531 139.097656 L 170.519531 124.867188 Z M 182.816406 124.867188 L 182.816406 132.179688 C 182.816406 135.832031 183.859375 139.464844 188.128906 139.464844 C 190.066406 139.464844 191.738281 138.628906 193.152344 136.957031 L 193.152344 139.097656 L 195.324219 139.097656 L 195.324219 124.867188 L 193.152344 124.867188 L 193.152344 130.144531 C 193.152344 132.023438 193.078125 133.28125 192.890625 133.902344 C 192.242188 136.042969 190.492188 137.453125 188.546875 137.453125 C 184.875 137.453125 184.960938 134.167969 184.960938 131.65625 L 184.960938 124.867188 Z M 226.210938 147.78125 L 223.488281 152.78125 L 225.761719 152.78125 L 229.453125 147.78125 Z M 167.746094 149.21875 L 167.746094 154.570312 L 165.285156 154.570312 L 165.285156 156.449219 L 167.746094 156.449219 L 167.746094 169.269531 L 169.917969 169.269531 L 169.917969 156.449219 L 172.742188 156.449219 L 172.742188 154.570312 L 169.917969 154.570312 L 169.917969 149.21875 Z M 238.726562 149.21875 L 238.726562 154.570312 L 236.265625 154.570312 L 236.265625 156.449219 L 238.726562 156.449219 L 238.726562 169.269531 L 240.898438 169.269531 L 240.898438 156.449219 L 243.722656 156.449219 L 243.722656 154.570312 L 240.898438 154.570312 L 240.898438 149.21875 Z M 124.738281 149.6875 L 124.738281 168.800781 L 126.910156 168.800781 L 126.910156 153.339844 L 133.8125 168.800781 L 135.15625 168.800781 L 141.847656 153.339844 L 141.847656 168.800781 L 144.019531 168.800781 L 144.019531 149.6875 L 140.914062 149.6875 L 134.410156 164.855469 L 127.863281 149.6875 Z M 246.355469 150.183594 L 246.355469 153.371094 L 248.523438 153.371094 L 248.523438 150.183594 Z M 154.738281 154.203125 C 150.441406 154.203125 147.320312 157.660156 147.320312 161.734375 C 147.320312 165.8125 150.441406 169.269531 154.738281 169.269531 C 156.914062 169.269531 158.835938 168.097656 160.039062 166.695312 L 160.039062 168.800781 L 162.15625 168.800781 L 162.15625 154.570312 L 160.039062 154.570312 L 160.039062 156.761719 C 158.875 155.265625 157.015625 154.203125 154.738281 154.203125 Z M 154.738281 156.316406 C 157.8125 156.316406 160.148438 158.769531 160.148438 161.734375 C 160.148438 164.703125 157.984375 167.25 154.832031 167.25 C 151.683594 167.25 149.503906 164.570312 149.503906 161.734375 C 149.503906 158.902344 151.664062 156.316406 154.738281 156.316406 Z M 195.484375 156.578125 L 195.484375 154.570312 L 193.339844 154.570312 L 193.339844 168.800781 L 195.484375 168.800781 L 195.484375 162.742188 C 195.484375 160.949219 195.625 159.660156 195.984375 158.902344 C 196.699219 157.390625 198.117188 156.292969 199.699219 156.292969 C 202.828125 156.292969 202.8125 159.316406 202.8125 161.515625 L 202.8125 168.800781 L 204.929688 168.800781 L 204.929688 163.1875 C 204.929688 161.429688 205.035156 160.09375 205.351562 159.21875 C 205.957031 157.515625 207.300781 156.292969 209.117188 156.292969 C 212.1875 156.292969 212.285156 158.875 212.285156 161.042969 L 212.285156 168.800781 L 214.480469 168.800781 L 214.480469 161.042969 C 214.480469 157.828125 213.71875 154.203125 209.5625 154.203125 C 207.300781 154.203125 205.550781 155.558594 204.515625 157.261719 C 203.691406 155.347656 202.207031 154.214844 200.066406 154.203125 C 198.234375 154.195312 196.707031 154.996094 195.484375 156.578125 Z M 246.355469 155.039062 L 246.355469 169.269531 L 248.523438 169.269531 L 248.523438 155.039062 Z M 259.285156 154.207031 C 254.988281 154.207031 251.867188 157.660156 251.867188 161.738281 C 251.867188 165.8125 254.988281 169.269531 259.285156 169.269531 C 262.929688 169.269531 265.71875 166.78125 266.484375 163.535156 L 264.222656 163.535156 C 263.5625 165.632812 261.761719 167.214844 259.285156 167.214844 C 256.132812 167.214844 254.070312 164.570312 254.070312 161.738281 C 254.070312 158.902344 256.421875 156.320312 259.285156 156.320312 C 261.382812 156.320312 263.203125 157.660156 264.027344 159.527344 L 266.386719 159.527344 C 265.492188 156.484375 262.773438 154.207031 259.285156 154.207031 Z M 259.285156 154.207031 "/>
</svg>
